<svg xmlns="http://www.w3.org/2000/svg" xmlns:xlink="http://www.w3.org/1999/xlink" width="998" height="82" viewBox="0 0 998 82">
  <defs>
    <radialGradient id="radial-gradient" cx="0.161" cy="0.133" r="1.498" gradientTransform="matrix(0.621, 0, 0, -0.624, -0.26, 16.912)" gradientUnits="objectBoundingBox">
      <stop offset="0" stop-color="#9dd5f6"/>
      <stop offset="0.07" stop-color="#98d3f5"/>
      <stop offset="0.16" stop-color="#89cef3"/>
      <stop offset="0.25" stop-color="#70c6ef"/>
      <stop offset="0.35" stop-color="#4ebbea"/>
      <stop offset="0.45" stop-color="#23ade3"/>
      <stop offset="0.5" stop-color="#0da6e0"/>
      <stop offset="1" stop-color="#2e77bc"/>
    </radialGradient>
  </defs>
  <g id="Group_16" data-name="Group 16" transform="translate(-270 -525)">
    <g id="Layer_2" data-name="Layer 2" transform="translate(270.466 525.804)">
      <g id="Layer_1" data-name="Layer 1" transform="translate(-0.466 -0.452)">
        <g id="Group_2" data-name="Group 2">
          <g id="Group_1" data-name="Group 1">
            <rect id="Rectangle_1" data-name="Rectangle 1" width="131" height="82" transform="translate(0 -0.352)" fill="#fff"/>
            <rect id="Rectangle_2" data-name="Rectangle 2" width="131" height="12" transform="translate(0 69.648)" fill="#f7b600"/>
            <rect id="Rectangle_3" data-name="Rectangle 3" width="131" height="12" transform="translate(0 -0.352)" fill="#1a1f71"/>
          </g>
          <path id="Path_1" data-name="Path 1" d="M94.514,96.239,81.03,128.4h-8.8l-6.638-25.675c-.4-1.578-.751-2.157-1.976-2.826A34.817,34.817,0,0,0,55.41,97.16l.2-.922H69.768a3.883,3.883,0,0,1,3.84,3.279l3.507,18.616,8.657-21.9Zm34.47,21.667c.038-8.489-11.735-8.96-11.658-12.752.025-1.155,1.125-2.382,3.529-2.7a15.693,15.693,0,0,1,8.209,1.44l1.458-6.826a22.444,22.444,0,0,0-7.785-1.423c-8.229,0-14.015,4.371-14.062,10.636-.053,4.632,4.136,7.214,7.284,8.755,3.244,1.578,4.333,2.588,4.316,4.008-.023,2.157-2.588,3.114-4.977,3.149a17.4,17.4,0,0,1-8.547-2.031l-1.5,7.051a25.28,25.28,0,0,0,9.253,1.708c8.745,0,14.466-4.321,14.491-11.022m21.727,10.5h7.7l-6.731-32.168h-7.1a3.782,3.782,0,0,0-3.544,2.36L128.55,128.407h8.742l1.733-4.8H149.7Zm-9.291-11.4,4.381-12.081,2.522,12.081ZM106.407,96.239,99.526,128.4H91.2l6.881-32.158Z" transform="translate(-41.246 -71.415)" fill="#1a1f71"/>
        </g>
        <g id="Group_4" data-name="Group 4" transform="translate(284.549)">
          <rect id="Rectangle_4" data-name="Rectangle 4" width="130" height="82" transform="translate(0.451 -0.352)"/>
          <g id="Group_3" data-name="Group 3" transform="translate(20.722 6.272)">
            <path id="_Compound_Path_" data-name=" Compound Path " d="M1247.425,267.833v-4.579a2.663,2.663,0,0,0-2.43-2.878,2.725,2.725,0,0,0-.378,0,2.833,2.833,0,0,0-2.565,1.3,2.682,2.682,0,0,0-2.412-1.3,2.5,2.5,0,0,0-2.2,1.067v-.892h-1.5v7.3h1.48v-4.2a1.753,1.753,0,0,1,1.558-1.931,1.845,1.845,0,0,1,.288,0c1.052,0,1.648.686,1.648,1.924v4.2h1.48v-4.2a1.754,1.754,0,0,1,1.576-1.931,1.631,1.631,0,0,1,.271,0c1.085,0,1.663.686,1.663,1.924v4.2Zm23.776-7.287h-2.655v-2.214h-1.488v2.214h-1.526v1.328h1.526v3.457c0,1.693.6,2.7,2.472,2.7a3.722,3.722,0,0,0,1.994-.561l-.456-1.3a2.959,2.959,0,0,1-1.405.413c-.751,0-1.115-.488-1.115-1.222v-3.507h2.655Zm13.554-.183a2.287,2.287,0,0,0-1.984,1.067v-.884h-1.45v7.3h1.475v-4.121c0-1.2.579-1.984,1.618-1.984a2.591,2.591,0,0,1,1,.183l.488-1.38a3.34,3.34,0,0,0-1.13-.2Zm-20.49.751a5.468,5.468,0,0,0-2.976-.751c-1.846,0-2.976.869-2.976,2.289,0,1.19.824,1.906,2.457,2.137l.751.105c.869.123,1.343.428,1.343.839,0,.566-.641.932-1.726.932a3.815,3.815,0,0,1-2.427-.764l-.751,1.145a5.421,5.421,0,0,0,3.159.947c2.107,0,3.274-.977,3.274-2.365s-.892-1.916-2.472-2.144l-.764-.108c-.686-.09-1.3-.306-1.3-.764s.581-.9,1.45-.9a4.708,4.708,0,0,1,2.289.626Zm22.131,3.053a3.637,3.637,0,0,0,3.454,3.815,2.882,2.882,0,0,0,.361,0,3.8,3.8,0,0,0,2.625-.869l-.752-1.145a3.2,3.2,0,0,1-1.906.656,2.487,2.487,0,0,1,0-4.952,3.2,3.2,0,0,1,1.906.656l.751-1.145a3.8,3.8,0,0,0-2.625-.869,3.64,3.64,0,0,0-3.815,3.454v.4Zm-10.27-3.815a3.526,3.526,0,0,0-3.61,3.815,3.6,3.6,0,0,0,3.364,3.81,3.311,3.311,0,0,0,.353,0,4.434,4.434,0,0,0,2.991-1.022l-.751-1.085a3.485,3.485,0,0,1-2.122.764,2.144,2.144,0,0,1-2.207-1.869h5.456v-.611c0-2.289-1.388-3.815-3.439-3.815Zm0,1.358a1.864,1.864,0,0,1,1.924,1.8v.045h-3.915a1.956,1.956,0,0,1,2-1.846Zm-19.771,2.465v-3.63h-1.465v.884a2.9,2.9,0,0,0-2.365-1.067,3.835,3.835,0,1,0,0,7.667,2.9,2.9,0,0,0,2.365-1.067v.884h1.465Zm-5.914,0a2.289,2.289,0,0,1,2.1-2.465h.19a2.487,2.487,0,0,1,0,4.952,2.29,2.29,0,0,1-2.3-2.282v-.19Zm56.385-3.815a2.289,2.289,0,0,0-1.984,1.067v-.892h-1.45v7.3h1.465v-4.111c0-1.2.581-1.984,1.618-1.984a2.582,2.582,0,0,1,1,.183l.5-1.373a3.342,3.342,0,0,0-1.13-.2Zm11.773,6.425a.731.731,0,0,1,.526.205.709.709,0,0,1,.16.794.728.728,0,0,1-.16.228.8.8,0,0,1-.526.215.751.751,0,0,1-.686-.443.709.709,0,0,1,.16-.794.9.9,0,0,1,.526-.228Zm0,1.29a.521.521,0,0,0,.22-.048.546.546,0,0,0,.175-.884.615.615,0,0,0-.175-.123.559.559,0,0,0-.22-.045.541.541,0,0,0-.22.045.583.583,0,0,0-.185.123.566.566,0,0,0,0,.764.539.539,0,0,0,.185.12.548.548,0,0,0,.22.033Zm.045-.909a.293.293,0,0,1,.2.063.193.193,0,0,1,.07.16.176.176,0,0,1-.055.135.268.268,0,0,1-.16.07l.223.25h-.175l-.208-.25h-.068v.25h-.145v-.671Zm-.168.13v.183h.168a.148.148,0,0,0,.093,0,.08.08,0,0,0,0-.068.085.085,0,0,0,0-.07.193.193,0,0,0-.093,0Zm-17.276-3.084v-3.667h-1.465v.884a2.9,2.9,0,0,0-2.365-1.067,3.835,3.835,0,1,0,0,7.667,2.9,2.9,0,0,0,2.365-1.067v.884h1.465Zm-5.914,0a2.29,2.29,0,0,1,2.1-2.465h.19a2.487,2.487,0,0,1,0,4.952,2.289,2.289,0,0,1-2.3-2.282v-.19Zm20.658,0V257.6h-1.465v3.815a2.9,2.9,0,0,0-2.367-1.067,3.835,3.835,0,0,0,0,7.667,2.9,2.9,0,0,0,2.367-1.067v.884h1.465Zm-5.914,0a2.287,2.287,0,0,1,2.1-2.465h.19a2.487,2.487,0,0,1-.03,4.922,2.287,2.287,0,0,1-2.3-2.282v-.183Z" transform="translate(-1231.338 -199.07)" fill="#fff"/>
            <g id="_Group_" data-name=" Group ">
              <rect id="Rectangle_5" data-name="Rectangle 5" width="24.037" height="43.199" transform="translate(32.424 5.874)" fill="#ff5f00"/>
              <path id="_Path_2" data-name=" Path 2" d="M1251.516,51.447a27.434,27.434,0,0,1,10.5-21.6,27.471,27.471,0,1,0,0,43.2A27.434,27.434,0,0,1,1251.516,51.447Z" transform="translate(-1217.566 -23.968)" fill="#eb001b"/>
              <path id="Path_2" data-name="Path 2" d="M1560.419,198.41v-.887h.358v-.183h-.907v.183h.358v.887Zm1.753,0v-1.07h-.265l-.321.751-.321-.751h-.273v1.07h.19V197.6l.3.694h.208l.3-.694v.809Z" transform="translate(-1474.127 -153.905)" fill="#f79e1b"/>
              <path id="Path_3" data-name="Path 3" d="M1439.449,51.418A27.471,27.471,0,0,1,1395,73.013a27.471,27.471,0,0,0,0-43.2,27.474,27.474,0,0,1,44.452,21.6Z" transform="translate(-1350.555 -23.939)" fill="#f79e1b"/>
            </g>
          </g>
        </g>
        <g id="Group_6" data-name="Group 6" transform="translate(426.519)">
          <rect id="Rectangle_6" data-name="Rectangle 6" width="130" height="82" transform="translate(0.481 -0.352)"/>
          <g id="Group_5" data-name="Group 5" transform="translate(20.809 6.31)">
            <path id="Path_4" data-name="Path 4" d="M1857.363,269.986v-4.569a2.71,2.71,0,0,0-2.863-2.893,2.813,2.813,0,0,0-2.557,1.3,2.678,2.678,0,0,0-2.407-1.3,2.4,2.4,0,0,0-2.132,1.082v-.9h-1.583v7.279h1.6v-4.035a1.7,1.7,0,0,1,1.781-1.934c1.08,0,1.586.684,1.586,1.919v4.05h1.593v-4.035a1.716,1.716,0,0,1,1.781-1.934c1.05,0,1.6.684,1.6,1.919v4.05Zm8.922-3.64v-3.64H1864.7v.884a2.755,2.755,0,0,0-2.3-1.067,3.827,3.827,0,0,0,0,7.645,2.755,2.755,0,0,0,2.3-1.067v.884h1.583Zm-5.891,0a2.2,2.2,0,1,1,2.207,2.33A2.182,2.182,0,0,1,1860.394,266.346Zm39.78-3.83a4.138,4.138,0,0,1,1.561.291,3.8,3.8,0,0,1,1.252.807,3.7,3.7,0,0,1,.822,1.212,4.028,4.028,0,0,1,0,3.041,3.7,3.7,0,0,1-.822,1.212,3.8,3.8,0,0,1-1.253.8,4.309,4.309,0,0,1-3.124,0,3.774,3.774,0,0,1-1.237-.8,3.728,3.728,0,0,1-.819-1.212,4.058,4.058,0,0,1,0-3.041,3.729,3.729,0,0,1,.819-1.212,3.78,3.78,0,0,1,1.237-.807A4.144,4.144,0,0,1,1900.174,262.516Zm0,1.5a2.335,2.335,0,0,0-.9.173,2.111,2.111,0,0,0-.724.478,2.294,2.294,0,0,0-.478.736,2.646,2.646,0,0,0,0,1.894,2.3,2.3,0,0,0,.479.736,2.112,2.112,0,0,0,.724.478,2.453,2.453,0,0,0,1.809,0,2.15,2.15,0,0,0,1.207-1.215,2.647,2.647,0,0,0,0-1.894,2.15,2.15,0,0,0-1.207-1.215,2.345,2.345,0,0,0-.9-.18Zm-25.269,2.335c-.015-2.269-1.418-3.822-3.457-3.822a3.826,3.826,0,0,0,.105,7.645,4.439,4.439,0,0,0,2.986-1.02l-.776-1.175a3.464,3.464,0,0,1-2.117.751,2.022,2.022,0,0,1-2.179-1.781h5.406c.017-.2.032-.393.032-.606Zm-5.423-.639a1.876,1.876,0,0,1,1.934-1.768,1.81,1.81,0,0,1,1.844,1.768Zm12.091-1.142a4.672,4.672,0,0,0-2.27-.626c-.867,0-1.385.321-1.385.854,0,.486.549.624,1.235.716l.751.105c1.586.228,2.545.9,2.545,2.177,0,1.388-1.22,2.377-3.322,2.377a5.26,5.26,0,0,1-3.151-.944l.751-1.235a3.867,3.867,0,0,0,2.422.751c1.08,0,1.658-.318,1.658-.882,0-.411-.411-.639-1.277-.751l-.751-.108c-1.631-.228-2.5-.959-2.5-2.147,0-1.445,1.187-2.33,3.028-2.33a5.441,5.441,0,0,1,2.971.751Zm7.61-.413h-2.588v3.291c0,.729.25,1.217,1.049,1.217a2.928,2.928,0,0,0,1.4-.411l.458,1.355a3.72,3.72,0,0,1-1.979.564c-1.874,0-2.53-1-2.53-2.7v-3.329h-1.475v-1.445h1.475V260.5h1.6v2.207h2.588Zm5.481-1.628a3.366,3.366,0,0,1,1.127.2l-.486,1.5a2.578,2.578,0,0,0-1-.183c-1.035,0-1.553.669-1.553,1.874V270h-1.583v-7.3h1.568v.884a2.144,2.144,0,0,1,1.919-1.067Zm10.964,6.4a.752.752,0,0,1,.288.058.736.736,0,0,1,.391.386.711.711,0,0,1,0,.561.7.7,0,0,1-.158.23.751.751,0,0,1-.233.155.7.7,0,0,1-.288.058.752.752,0,0,1-.526-.213.714.714,0,0,1,0-1.022.668.668,0,0,1,.236-.155.752.752,0,0,1,.291-.065Zm0,1.29a.521.521,0,0,0,.218-.045.588.588,0,0,0,.178-.12.517.517,0,0,0,.12-.18.541.541,0,0,0,.045-.22.55.55,0,0,0-.045-.22.565.565,0,0,0-.3-.3.521.521,0,0,0-.218-.045.564.564,0,0,0-.223.045.542.542,0,0,0-.18.12.585.585,0,0,0-.12.178.6.6,0,0,0-.043.22.585.585,0,0,0,.043.22.6.6,0,0,0,.12.18.631.631,0,0,0,.18.12.564.564,0,0,0,.223.038Zm.042-.9a.3.3,0,0,1,.2.058.188.188,0,0,1,.07.158.176.176,0,0,1-.055.135.251.251,0,0,1-.16.068l.22.25h-.173l-.2-.25h-.065v.25h-.145v-.671Zm-.165.125v.18h.165a.16.16,0,0,0,.09-.023.087.087,0,0,0,0-.135.161.161,0,0,0-.09-.023Z" transform="translate(-1830.505 -201.283)" fill="#fff"/>
            <g id="_Group_2" data-name="&lt;Group&gt;">
              <rect id="Rectangle_7" data-name="Rectangle 7" width="24.019" height="43.162" transform="translate(32.408 5.871)" fill="#7673c0"/>
              <path id="_Path_" data-name="&lt;Path&gt;" d="M1818.612,51.544a27.4,27.4,0,0,1,10.485-21.58,27.451,27.451,0,1,0,0,43.162,27.4,27.4,0,0,1-10.485-21.582Z" transform="translate(-1784.681 -24.093)" fill="#eb001b"/>
              <path id="Path_5" data-name="Path 5" d="M2127.191,198.4v-.884h.358v-.18h-.909v.18H2127v.884Zm1.754,0V197.33h-.278l-.321.734-.321-.734h-.278V198.4h.2v-.8l.3.694h.2l.3-.7v.807Z" transform="translate(-2040.983 -153.936)" fill="#00a1df"/>
              <path id="Path_6" data-name="Path 6" d="M2006.412,51.548A27.449,27.449,0,0,1,1962,73.13a27.456,27.456,0,0,0,0-43.162,27.449,27.449,0,0,1,44.412,21.58Z" transform="translate(-1917.583 -24.098)" fill="#00a1df"/>
            </g>
          </g>
        </g>
        <g id="Group_8" data-name="Group 8" transform="translate(568.394 0.275)">
          <path id="Path_7" data-name="Path 7" d="M2398.755,0H2268V81.159h130.755" transform="translate(-2268)" fill="url(#radial-gradient)"/>
          <g id="Group_7" data-name="Group 7" transform="translate(9.684 20.167)">
            <path id="Path_8" data-name="Path 8" d="M2316.7,90.555l-2.144-5.223-2.129,5.223m51.478-2.079a3.009,3.009,0,0,1-1.548.268h-3.8V85.835h3.855a3.223,3.223,0,0,1,1.483.235,1.2,1.2,0,0,1,.659,1.157,1.343,1.343,0,0,1-.646,1.247Zm27.133,2.079-2.167-5.223-2.154,5.223Zm-50.576,5.651h-3.209l-.012-10.258L2332.7,96.206h-2.756l-4.551-10.27v10.27h-6.367l-1.2-2.921h-6.513l-1.215,2.921h-3.4l5.606-13.1h4.651l5.321,12.4v-12.4h5.11l4.1,8.885,3.757-8.885h5.213v13.1Zm12.793,0H2342.8v-13.1h10.46v2.728h-7.329V88.2h7.159V90.88h-7.151V93.5h7.329ZM2368,86.644a3.687,3.687,0,0,1-2.207,3.492,3.637,3.637,0,0,1,1.548,1.1,3.763,3.763,0,0,1,.519,2.4v2.573H2364.7V94.562a3.888,3.888,0,0,0-.5-2.55c-.456-.461-1.155-.561-2.282-.561h-3.359v4.759h-3.131v-13.1h7.2a7.389,7.389,0,0,1,3.79.626A3.022,3.022,0,0,1,2368,86.644Zm5.01,9.571h-3.2V83.108h3.2Zm37.06,0h-4.439l-5.934-9.832v9.832h-6.375l-1.217-2.921h-6.513l-1.182,2.921h-3.662a6.573,6.573,0,0,1-4.539-1.448c-1.09-1.112-1.673-2.62-1.673-5.01a6.969,6.969,0,0,1,1.688-5.12c1-1.047,2.6-1.528,4.759-1.528h3.031v2.805h-2.968a3.019,3.019,0,0,0-2.41.777,4.329,4.329,0,0,0-.9,2.968,4.589,4.589,0,0,0,.862,3.076,3.027,3.027,0,0,0,2.182.674h1.405l4.414-10.3h4.689l5.3,12.389V83.108h4.759l5.511,9.123V83.108h3.209v13.1Zm-103.41,2.573h5.343l1.207-2.908h2.7l1.2,2.908h10.521V96.564l.942,2.234h5.47l.939-2.254V98.8h26.156l-.012-4.777h.5c.353,0,.458.045.458.631V98.8h13.526V97.666a10.7,10.7,0,0,0,5.022,1.112h5.691l1.218-2.908h2.7l1.192,2.908h10.966V96.023l1.661,2.755h8.79V80.51h-8.7v2.157l-1.217-2.157h-8.925v2.157l-1.1-2.157h-12.056a10.837,10.837,0,0,0-5.225,1.067V80.51h-8.319v1.067a5.154,5.154,0,0,0-3.534-1.067h-30.4l-2.039,4.719-2.094-4.719h-9.573v2.157l-1.052-2.157h-8.163L2306.66,89.2v9.581Z" transform="translate(-2306.66 -80.51)" fill="#fff"/>
            <path id="Path_9" data-name="Path 9" d="M2484.327,175.863h-5.706a2.165,2.165,0,0,0-1.267.235,1.022,1.022,0,0,0-.458.944,1,1,0,0,0,.686.974,3.548,3.548,0,0,0,1.205.148l1.7.048c1.711.04,2.853.336,3.552,1.055a1.66,1.66,0,0,1,.29.323m0,4.91c-.751,1.112-2.254,1.676-4.258,1.676h-6.044v-2.8h6.012a1.742,1.742,0,0,0,1.253-.323,1.144,1.144,0,0,0,.371-.854,1.075,1.075,0,0,0-.381-.867,1.592,1.592,0,0,0-1.1-.291c-2.938-.1-6.605.09-6.605-4.055,0-1.9,1.205-3.9,4.491-3.9h6.235V170.47h-5.764a6.559,6.559,0,0,0-3.918,1.07v-1.07h-8.569a5.937,5.937,0,0,0-3.74,1.07v-1.07H2447v1.07a8.155,8.155,0,0,0-4.221-1.07h-10.095v1.07c-.964-.932-3.106-1.07-4.414-1.07h-11.3l-2.585,2.8-2.422-2.8H2395.09v18.286h16.56l2.663-2.841,2.505,2.841h10.208v-4.3h1a10.611,10.611,0,0,0,4.361-.644v4.935h8.419v-4.759h.406c.519,0,.569.023.569.539v4.226h25.575a7.282,7.282,0,0,0,4.258-1.17v1.17h8.118a10.869,10.869,0,0,0,4.592-.844V184.5Zm-12.49-5.233a3.642,3.642,0,0,1,.937,2.775c0,2.818-1.753,4.133-4.92,4.133h-6.1v-2.8h6.074a1.837,1.837,0,0,0,1.278-.323,1.16,1.16,0,0,0,.371-.854,1.123,1.123,0,0,0-.384-.867,1.639,1.639,0,0,0-1.115-.291c-2.928-.1-6.593.09-6.593-4.055,0-1.9,1.192-3.9,4.476-3.9h6.275v2.775H2466.4a2.011,2.011,0,0,0-1.252.25,1.095,1.095,0,0,0,.213,1.916,3.6,3.6,0,0,0,1.22.15l1.686.045c1.7.03,2.866.326,3.574,1.045Zm-28.25-.809a2.975,2.975,0,0,1-1.546.268h-3.8v-2.938h3.855a3.02,3.02,0,0,1,1.5.235,1.252,1.252,0,0,1,.649,1.18,1.415,1.415,0,0,1-.659,1.257Zm1.891,1.628a3.389,3.389,0,0,1,1.533,1.1,3.832,3.832,0,0,1,.519,2.39v2.6h-3.141v-1.638c0-.789.075-1.956-.5-2.565a3.035,3.035,0,0,0-2.294-.581h-3.346v4.784H2435.1v-13.1h7.229a7.694,7.694,0,0,1,3.757.619,3.043,3.043,0,0,1,1.611,2.908,3.665,3.665,0,0,1-2.219,3.487Zm3.955-7.014h10.448v2.708h-7.329v2.382h7.141v2.673h-7.151v2.608l7.329.013v2.718h-10.448Zm-21.124,6.047h-4.045v-3.332h4.083c1.13,0,1.914.461,1.914,1.606S2429.514,179.119,2428.31,179.119Zm-7.164,5.861-4.807-5.335,4.807-5.168Zm-12.412-1.538h-7.7v-2.6h6.874v-2.673h-6.874v-2.382h7.848l3.424,3.82Zm24.889-6.054c0,3.64-2.715,4.391-5.451,4.391h-3.908v4.394h-6.084l-3.855-4.336-4.008,4.336h-12.4v-13.1h12.592l3.845,4.293,3.983-4.293h10c2.49.005,5.28.691,5.28,4.321Z" transform="translate(-2372.939 -147.936)" fill="#fff"/>
          </g>
        </g>
        <g id="Group_11" data-name="Group 11" transform="translate(710.422 0.275)">
          <rect id="_Path_2-2" data-name="&lt;Path&gt;" width="130.756" height="81.201" fill="#fff"/>
          <g id="Group_10" data-name="Group 10" transform="translate(12.87 27.166)">
            <path id="Path_10" data-name="Path 10" d="M3184.352,136.433h-5.674a1.106,1.106,0,0,0-.834.666l-2.337,14.686a.443.443,0,0,0,.5.5h3.006a.443.443,0,0,0,.5-.5l.669-4.173a.763.763,0,0,1,.834-.666h1.836q5.761,0,6.513-5.511a4.367,4.367,0,0,0-.669-3.67,6.736,6.736,0,0,0-4.338-1.335m.669,5.511c-.336,2-1.836,2-3.339,2h-1l.669-3.84c0-.165.168-.333.5-.333h.333c1,0,2,0,2.5.669.336.165.336.666.336,1.5" transform="translate(-3103.08 -129.421)" fill="#139ad6"/>
            <g id="Group_9" data-name="Group 9" transform="translate(31.547 7.006)">
              <path id="Path_11" data-name="Path 11" d="M3021.162,136.425H3015.5a1.11,1.11,0,0,0-.836.666l-2.335,14.686a.444.444,0,0,0,.5.5h2.67a1.109,1.109,0,0,0,.834-.669L3017,147.6a.763.763,0,0,1,.834-.666h1.836q5.761,0,6.513-5.511a4.368,4.368,0,0,0-.666-3.67,6.418,6.418,0,0,0-4.339-1.335m.667,5.511c-.333,2-1.836,2-3.337,2h-.834l.667-3.84c0-.165.168-.333.5-.333h.333c1,0,2,0,2.5.669a1.791,1.791,0,0,1,.165,1.5" transform="translate(-3012.323 -136.42)" fill="#263b80"/>
              <path id="Path_12" data-name="Path 12" d="M3077.452,156.756h-2.67c-.168,0-.5.165-.5.333l-.168.834-.165-.333a3.93,3.93,0,0,0-3.171-1.17,6.412,6.412,0,0,0-6.175,5.511,4.973,4.973,0,0,0,1,4.173,4.205,4.205,0,0,0,3.507,1.333,5.326,5.326,0,0,0,3.838-1.5l-.168.834a.443.443,0,0,0,.5.5h2.5a1.109,1.109,0,0,0,.834-.669l1.5-9.343c-.165-.168-.5-.5-.666-.5m-3.84,5.34a3.227,3.227,0,0,1-3.169,2.67,2.674,2.674,0,0,1-1.836-.669,3.565,3.565,0,0,1-.5-2,2.98,2.98,0,0,1,4.842-2,2.913,2.913,0,0,1,.667,2" transform="translate(-3051.424 -151.41)" fill="#263b80"/>
            </g>
            <path id="Path_13" data-name="Path 13" d="M3240.012,156.756h-2.67c-.168,0-.5.165-.5.333l-.168.834-.166-.333a3.929,3.929,0,0,0-3.171-1.17,6.412,6.412,0,0,0-6.175,5.511,4.972,4.972,0,0,0,1,4.173,4.209,4.209,0,0,0,3.507,1.333,5.335,5.335,0,0,0,3.84-1.5l-.168.834a.443.443,0,0,0,.5.5h2.5a1.1,1.1,0,0,0,.834-.669l1.5-9.343c-.168-.168-.333-.5-.667-.5m-3.84,5.34a3.227,3.227,0,0,1-3.171,2.67,2.664,2.664,0,0,1-1.833-.669,3.538,3.538,0,0,1-.5-2,2.98,2.98,0,0,1,4.842-2,1.917,1.917,0,0,1,.666,2" transform="translate(-3141.717 -144.404)" fill="#139ad6"/>
            <path id="Path_14" data-name="Path 14" d="M3135.74,157.76H3132.9a.86.86,0,0,0-.667.333l-3.672,5.674-1.668-5.34a.772.772,0,0,0-.834-.5h-2.67c-.333,0-.5.336-.5.669l3.006,8.845-2.835,4.008c-.168.333,0,.834.333.834h2.67a.867.867,0,0,0,.666-.333l9.18-13.186c.5-.5.165-1-.168-1" transform="translate(-3063.647 -145.408)" fill="#263b80"/>
            <path id="Path_15" data-name="Path 15" d="M3284.44,137.279l-2.334,15.029a.441.441,0,0,0,.5.5h2.334a1.1,1.1,0,0,0,.834-.666l2.337-14.686a.443.443,0,0,0-.5-.5h-2.67c-.165-.165-.333,0-.5.336" transform="translate(-3182.977 -129.767)" fill="#139ad6"/>
            <path id="Path_16" data-name="Path 16" d="M2905.572,110.454c-1.169-1.335-3.339-2-6.342-2h-8.344a1.429,1.429,0,0,0-1.167,1l-3.339,21.863a.763.763,0,0,0,.669.834h5.172l1.335-8.178v.336a1.429,1.429,0,0,1,1.167-1h2.5c4.839,0,8.517-2,9.679-7.515v-.5h0a5.834,5.834,0,0,0-1.335-4.839" transform="translate(-2886.38 -108.45)" fill="#263b80"/>
            <path id="Path_17" data-name="Path 17" d="M2922.7,135.763h0v.5c-1.167,5.674-4.84,7.515-9.679,7.515h-2.505a1.435,1.435,0,0,0-1.17,1l-1.668,10.18a.611.611,0,0,0,.667.666h4.341a.934.934,0,0,0,1-.834v-.168l.832-5.178v-.333a.935.935,0,0,1,1-.834h.669c4.17,0,7.515-1.668,8.344-6.676.333-2,.165-3.837-.834-5.01a1.717,1.717,0,0,0-1-.834" transform="translate(-2902.344 -128.919)" fill="#139ad6"/>
            <path id="Path_18" data-name="Path 18" d="M2927.023,132.242c-.168,0-.335-.165-.5-.165a.611.611,0,0,1-.5-.168,8.766,8.766,0,0,0-2.169-.168h-6.512a.609.609,0,0,0-.5.168.917.917,0,0,0-.5.834L2915,141.42v.336a1.429,1.429,0,0,1,1.167-1h2.5c4.839,0,8.517-2,9.679-7.515a.615.615,0,0,1,.165-.5c-.333-.165-.5-.333-.834-.333-.5-.168-.5-.168-.666-.168" transform="translate(-2907.831 -125.899)" fill="#232c65"/>
          </g>
        </g>
        <g id="Group_12" data-name="Group 12" transform="translate(142.579)">
          <rect id="Rectangle_8" data-name="Rectangle 8" width="130" height="82" transform="translate(0.421 -0.352)" fill="#fff"/>
          <rect id="Rectangle_9" data-name="Rectangle 9" width="130" height="12" transform="translate(0.421 69.648)" fill="#f7b600"/>
          <rect id="Rectangle_10" data-name="Rectangle 10" width="130" height="12" transform="translate(0.421 -0.352)" fill="#1a1f71"/>
          <g id="g4155" transform="translate(16.903 19.395)">
            <g id="g4161">
              <path id="path4163" d="M683.288,76.881l-6.44,30.114h-7.793l6.435-30.114ZM716.07,96.324l4.1-11.31,2.357,11.307Zm8.7,10.671h7.2l-6.3-30.114h-6.648a3.544,3.544,0,0,0-3.316,2.207l-11.69,27.907H712.2l1.623-4.509h9.995Zm-20.345-9.832c.033-7.948-10.986-8.389-10.914-11.938.025-1.08,1.055-2.229,3.3-2.522a14.684,14.684,0,0,1,7.682,1.348l1.365-6.39a21.04,21.04,0,0,0-7.287-1.33c-7.7,0-13.118,4.09-13.163,9.954-.05,4.336,3.87,6.763,6.818,8.2,3.036,1.475,4.055,2.425,4.04,3.742-.02,2.019-2.425,2.913-4.659,2.948a16.267,16.267,0,0,1-8-1.9l-1.415,6.6a23.587,23.587,0,0,0,8.662,1.6c8.188,0,13.544-4.043,13.567-10.3m-32.266-20.29-12.622,30.121H651.3L645.086,82.96a3.306,3.306,0,0,0-1.851-2.645,32.53,32.53,0,0,0-7.685-2.56l.183-.874h13.258a3.63,3.63,0,0,1,3.592,3.068l3.284,17.427,8.1-20.5Z" transform="translate(-635.55 -76.33)" fill="#1a1f71"/>
            </g>
            <g id="g4165" transform="translate(53.467 34.61)">
              <path id="path4167" d="M853.243,218.843h-3.166v2.946h3.542v.887H849V214.5h4.426v.877h-3.349v2.583h3.166Z" transform="translate(-849 -214.5)" fill="#1a1f71"/>
            </g>
            <path id="path4169" d="M874,212.76h1.067v8.609H874Z" transform="translate(-814.271 -178.586)" fill="#1a1f71"/>
            <g id="g4171" transform="translate(62.46 36.782)">
              <path id="path4173" d="M889.048,225.667a1.523,1.523,0,0,0-1.48-1.721,1.748,1.748,0,0,0-1.638,1.721Zm-3.121.764a1.872,1.872,0,0,0,2,2.039,3.853,3.853,0,0,0,1.626-.3l.2.751a4.831,4.831,0,0,1-1.966.376,2.736,2.736,0,0,1-2.886-2.971c0-1.768,1.042-3.154,2.755-3.154a2.469,2.469,0,0,1,2.425,2.755,2.754,2.754,0,0,1-.035.5Z" transform="translate(-884.9 -223.17)" fill="#1a1f71"/>
            </g>
            <g id="g4175" transform="translate(68.837 36.784)">
              <path id="path4177" d="M914.967,228.972a4.125,4.125,0,0,1-1.686.341,2.791,2.791,0,0,1-2.921-3.006,2.991,2.991,0,0,1,3.151-3.129,3.359,3.359,0,0,1,1.48.316l-.25.812a2.63,2.63,0,0,0-1.237-.278,2.034,2.034,0,0,0-2.072,2.219,2.011,2.011,0,0,0,2.036,2.194,3.046,3.046,0,0,0,1.308-.278Z" transform="translate(-910.36 -223.178)" fill="#1a1f71"/>
            </g>
            <g id="g4179" transform="translate(74.486 35.509)">
              <path id="path4181" d="M934.861,218.09V219.5h1.528v.812h-1.528v3.166c0,.729.208,1.14.8,1.14a1.951,1.951,0,0,0,.619-.073l.048.814a2.91,2.91,0,0,1-.947.145,1.518,1.518,0,0,1-1.15-.448,2.284,2.284,0,0,1-.413-1.541v-3.2h-.909V219.5h.909v-1.09Z" transform="translate(-932.91 -218.09)" fill="#1a1f71"/>
            </g>
            <g id="g4183" transform="translate(79.408 36.792)">
              <path id="path4185" d="M952.608,225.161c0-.691,0-1.285-.048-1.831h.932l.05,1.165h.035a1.776,1.776,0,0,1,1.638-1.285,2.628,2.628,0,0,1,.291.023v1a1.612,1.612,0,0,0-.363-.025,1.486,1.486,0,0,0-1.433,1.358,3.431,3.431,0,0,0-.035.5V229.2h-1.067Z" transform="translate(-952.56 -223.21)" fill="#1a1f71"/>
            </g>
            <g id="g4187" transform="translate(83.19 36.784)">
              <path id="path4189" d="M968.747,226.258c0,1.285.729,2.254,1.771,2.254s1.781-.957,1.781-2.279c0-1-.5-2.254-1.754-2.254s-1.8,1.165-1.8,2.269m4.644-.06a2.868,2.868,0,0,1-2.921,3.116,2.8,2.8,0,0,1-2.813-3.021,2.867,2.867,0,0,1,2.908-3.1,2.775,2.775,0,0,1,2.826,3.006" transform="translate(-967.66 -223.18)" fill="#1a1f71"/>
            </g>
            <g id="g4191" transform="translate(90.492 36.784)">
              <path id="path4193" d="M996.858,224.886c0-.616,0-1.1-.048-1.588h.944l.063.972h.023a2.172,2.172,0,0,1,1.941-1.092c.812,0,2.074.486,2.074,2.5v3.492h-1.067v-3.382c0-.947-.353-1.736-1.36-1.736a1.541,1.541,0,0,0-1.43,1.092,1.573,1.573,0,0,0-.073.5v3.527h-1.067Z" transform="translate(-996.81 -223.177)" fill="#1a1f71"/>
            </g>
          </g>
        </g>
      </g>
    </g>
    <g id="Group_15" data-name="Group 15" transform="translate(812 489)">
      <g id="Group_14" data-name="Group 14" transform="translate(310 37)">
        <rect id="Rectangle_11" data-name="Rectangle 11" width="146" height="81" rx="4.321" fill="#ffb3c7"/>
        <g id="Group_13" data-name="Group 13" transform="translate(14.301 27.216)">
          <path id="Path_19" data-name="Path 19" d="M117.871,20.237a3.486,3.486,0,1,0,3.454,3.486A3.486,3.486,0,0,0,117.871,20.237Zm-11.363-2.7a4.99,4.99,0,0,0-9.973,0,4.99,4.99,0,0,0,9.973,0Zm.019-9.273h5.508V26.817h-5.508V25.632a9.587,9.587,0,0,1-5.456,1.7,9.787,9.787,0,1,1,0-19.574,9.584,9.584,0,0,1,5.456,1.7V8.268ZM62.487,10.692V8.272H56.856V26.817H62.5V18.144c0-2.916,3.136-4.491,5.314-4.491h.065V8.272a6.836,6.836,0,0,0-5.395,2.414ZM48.454,17.545a4.99,4.99,0,0,0-9.973,0,4.99,4.99,0,0,0,9.973,0Zm.019-9.273h5.508V26.817H48.474V25.632a9.587,9.587,0,0,1-5.456,1.7,9.787,9.787,0,1,1,0-19.574,9.584,9.584,0,0,1,5.456,1.7V8.268Zm33.119-.5a6.661,6.661,0,0,0-5.67,2.592v-2.1H70.444V26.817h5.547V17.072a3.888,3.888,0,0,1,4.131-4.212c2.417,0,3.81,1.458,3.81,4.163v9.785H89.44V15.024a7.3,7.3,0,0,0-7.847-7.248ZM25.3,26.817h5.761V0H25.3ZM0,26.824H6.1V0H0ZM21.332,0A21.436,21.436,0,0,1,15.1,15.228l8.424,11.6H15.993L6.83,14.217,9.2,12.429A15.448,15.448,0,0,0,15.364,0Z" transform="translate(0 0)" fill="#0a0b09"/>
        </g>
      </g>
    </g>
  </g>
</svg>
